<svg id="Group_2" data-name="Group 2" xmlns="http://www.w3.org/2000/svg" xmlns:xlink="http://www.w3.org/1999/xlink" width="228.591" height="212.669" viewBox="0 0 228.591 212.669">
  <defs>
    <clipPath id="clip-path">
      <rect id="Rectangle_4" data-name="Rectangle 4" width="228.591" height="212.669" fill="none"/>
    </clipPath>
  </defs>
  <g id="Group_1" data-name="Group 1" clip-path="url(#clip-path)">
    <path id="Path_1" data-name="Path 1" d="M127.119,64.218a60.7,60.7,0,0,1,7.511.483c2,.254,3.847.59,5.54.967v-8.7a29.668,29.668,0,0,1,5.023-16.637c.467-.691.909-1.282,1.3-1.775a37.72,37.72,0,0,1,6.945-6.593,52.2,52.2,0,0,1,9.132-5.7c2.852-1.4,5.675-2.851,8.5-4.31l14.48-7.49a102.871,102.871,0,0,0,11.946,6.563c4.374,2.033,7.34,3.023,12.145,5.714a77.981,77.981,0,0,1,6.838,4.308,32.007,32.007,0,0,1,11.471,12.68q.174.351.335.7A29.106,29.106,0,0,1,230.9,56.676v9.475a14.917,14.917,0,0,1,1.442-.634c1.311-.5,2.848-.865,6.85-1.058,1.159-.055,2.661-.1,4.425-.093a56.537,56.537,0,0,0,.223-9.036,48.582,48.582,0,0,0-2.206-12.811,40.585,40.585,0,0,0-12.3-18.424A115.543,115.543,0,0,0,216.873,15.7C212.6,13.21,209.706,11.889,202.9,8.59,198.852,6.627,192.887,3.706,185.545,0c-6.412,3.373-11.659,5.97-15.217,7.7-5.981,2.9-9.115,4.277-14,6.972-4.736,2.612-8.438,4.987-10.76,6.535a43.954,43.954,0,0,0-15.232,18.9,51.7,51.7,0,0,0-3.291,15.506,56.2,56.2,0,0,0,.074,8.608" transform="translate(-71.463)" fill="#4c230d"/>
    <path id="Path_2" data-name="Path 2" d="M258.13,148.963a12,12,0,1,1-12-12,12,12,0,0,1,12,12" transform="translate(-131.836 -77.122)" fill="#bca79d"/>
    <path id="Path_3" data-name="Path 3" d="M240.013,171.841a76.95,76.95,0,0,0-34.135,1.785c-11.923,3.471-21.611,9.694-27.591,13.535-3.541,2.275-6.082,4.628-8.032,6.1-3.52.1-7.337-.1-10.857,0a86.731,86.731,0,0,0-15.766-11.527,83.908,83.908,0,0,0-25.836-9.654,78.608,78.608,0,0,0-27.264-.163V158.231a98.6,98.6,0,0,1,74.443,22.236c1.337-.973,3.3-2.362,5.727-3.942,8.395-5.463,22.633-14.54,41.721-17.7a87.525,87.525,0,0,1,27.256-.149q.167,6.582.335,13.163" transform="translate(-50.976 -88.733)" fill="#bca79d"/>
    <path id="Path_4" data-name="Path 4" d="M140.264,200.8V228.65h90.767V201.022a37.994,37.994,0,0,1,13.163-1.822v42.316H127.212V199.2a61.631,61.631,0,0,1,7.4.558c2.039.278,3.927.64,5.652,1.041" transform="translate(-71.631 -112.151)" fill="#4c230d"/>
    <path id="Path_5" data-name="Path 5" d="M135.041,399.423a9.391,9.391,0,0,0-.994-8.589c-1.934-3-5.4-5.438-7.539-6.943-1.267-.891-2.578-1.531-3.4-2.021-.055-.886.055-1.846,0-2.732a36.007,36.007,0,0,0,6.421-3.967c3.915-3.1,5.1-5.813,5.377-6.5a11.507,11.507,0,0,0,.709-3.373,14.139,14.139,0,0,0-.125-3.418l7.129-.069a11.884,11.884,0,0,1-1.391,9.092,20.8,20.8,0,0,1-4.74,5.448,37.544,37.544,0,0,1-6.255,4.192c.542.336,1.316.83,2.2,1.441,3.043,2.113,8.1,5.695,9.859,10.5a10.2,10.2,0,0,1,.083,6.858l-7.332.084" transform="translate(-69.313 -203.728)" fill="#bca79d"/>
    <path id="Path_6" data-name="Path 6" d="M24.022,427.3a33.623,33.623,0,0,0-1.756-3.924,24.3,24.3,0,0,0-2.761-4.164,23.283,23.283,0,0,0-3.893-3.762,18.277,18.277,0,0,0-5.221-2.761H4.762v18.18a10.367,10.367,0,0,1-1.437,5.252A29.2,29.2,0,0,1,0,440.774l4.867,4.273a39.707,39.707,0,0,0,3.819-5.221,17.544,17.544,0,0,0,2.3-6.034H27.6V427.3Zm-12.767,0v-6.982a13.378,13.378,0,0,1,3.434,3.22,23.693,23.693,0,0,1,2.3,3.762Z" transform="translate(0 -232.378)" fill="#bca79d"/>
    <path id="Path_7" data-name="Path 7" d="M68.006,437.362a2.885,2.885,0,0,0-2.11-.865,3.066,3.066,0,0,0-2.167.865,2.859,2.859,0,0,0-.918,2.167,2.709,2.709,0,0,0,.918,2.084,3.114,3.114,0,0,0,2.167.835,2.928,2.928,0,0,0,2.11-.835,2.786,2.786,0,0,0,.865-2.084,2.944,2.944,0,0,0-.865-2.167M63.3,412.689V427.3h-4.33l-1.621,1.621v3.251l1.621,1.621H69.789v-21.1Zm-2.49,24.673a2.686,2.686,0,0,0-2.054-.865,2.959,2.959,0,0,0-2.137.865,2.887,2.887,0,0,0-.9,2.167,2.734,2.734,0,0,0,.9,2.084,3,3,0,0,0,2.137.835,2.723,2.723,0,0,0,2.054-.835,2.877,2.877,0,0,0,.813-2.084,3.047,3.047,0,0,0-.813-2.167" transform="translate(-31.375 -232.378)" fill="#bca79d"/>
    <path id="Path_8" data-name="Path 8" d="M103.135,430.785V418.879H96.642v15.476a10.362,10.362,0,0,1-1.433,5.252,29.5,29.5,0,0,1-3.329,4.653l4.872,4.273a39.285,39.285,0,0,0,3.814-5.221,17.544,17.544,0,0,0,2.3-6.034h3.517v-6.493Z" transform="translate(-51.736 -235.864)" fill="#bca79d"/>
    <path id="Path_9" data-name="Path 9" d="M122.975,446.129l-1.625,1.621V451l1.625,1.621h29.217v-6.493Z" transform="translate(-68.33 -251.207)" fill="#bca79d"/>
    <path id="Path_10" data-name="Path 10" d="M193.092,374.3v31.384h-3.246L188.22,407.3v3.251l1.625,1.621h9.739V374.3Z" transform="translate(-105.983 -210.761)" fill="#bca79d"/>
    <rect id="Rectangle_1" data-name="Rectangle 1" width="6.493" height="37.876" transform="translate(100.093 163.538)" fill="#bca79d"/>
    <path id="Path_11" data-name="Path 11" d="M294.935,409.844a2.786,2.786,0,0,0-2.084-.865,2.959,2.959,0,0,0-2.137.865,2.89,2.89,0,0,0-.891,2.163,2.746,2.746,0,0,0,.891,2.084,3.008,3.008,0,0,0,2.137.839,2.866,2.866,0,0,0,2.923-2.923,2.983,2.983,0,0,0-.839-2.163m5.544,3.46v21.645H295.5a18.054,18.054,0,0,1-3.032-1.486,13.84,13.84,0,0,1-3-2.517,17.008,17.008,0,0,1-2.569-3.814,19.115,19.115,0,0,1-1.678-5.33h-6.6a24.795,24.795,0,0,0,6.493,13.8,20.682,20.682,0,0,0,4.679,3.731,25.627,25.627,0,0,0,4.575,2.11h12.605V413.3Z" transform="translate(-156.886 -230.289)" fill="#4c230d"/>
    <path id="Path_12" data-name="Path 12" d="M355.583,407.293h6.493v-34.63h-6.493Zm6.112-39.877a7.434,7.434,0,0,1-1.756-.218,3.235,3.235,0,0,1-1.761-1.569h-1.73l-3.028,2.923v3.032h1.512l1.678-1.625a4.441,4.441,0,0,0,2.137.922,22.153,22.153,0,0,0,2.9.162h2.6v-3.626Z" transform="translate(-199.005 -205.879)" fill="#4c230d"/>
    <path id="Path_13" data-name="Path 13" d="M389.685,430.785V418.879h-6.493v15.476a10.405,10.405,0,0,1-1.433,5.252,29.5,29.5,0,0,1-3.329,4.653l4.867,4.273a38.931,38.931,0,0,0,3.819-5.221,17.544,17.544,0,0,0,2.3-6.034h3.517v-6.493Z" transform="translate(-213.087 -235.864)" fill="#4c230d"/>
    <path id="Path_14" data-name="Path 14" d="M429.274,393.744a2.871,2.871,0,0,0-2.11-.865,3.066,3.066,0,0,0-2.167.865,2.849,2.849,0,0,0-.918,2.163,2.709,2.709,0,0,0,.918,2.084,3.118,3.118,0,0,0,2.167.839,2.918,2.918,0,0,0,2.11-.839,2.786,2.786,0,0,0,.865-2.084,2.934,2.934,0,0,0-.865-2.163m-7.2,0a2.7,2.7,0,0,0-2.058-.865,2.959,2.959,0,0,0-2.137.865,2.89,2.89,0,0,0-.891,2.163,2.746,2.746,0,0,0,.891,2.084,3.008,3.008,0,0,0,2.137.839,2.743,2.743,0,0,0,2.058-.839,2.874,2.874,0,0,0,.808-2.084,3.033,3.033,0,0,0-.808-2.163m10.281,22.4v-14.61H412.772v5.575a38.749,38.749,0,0,0,1.73,4.33,21.315,21.315,0,0,0,3.085,4.706h-8.061l-1.625,1.621v3.251l1.625,1.621h26.023v-6.493Zm-6.5-1.084a12.8,12.8,0,0,1-3.487-3.246,23.013,23.013,0,0,1-2.3-3.788h5.789Z" transform="translate(-229.681 -221.223)" fill="#4c230d"/>
    <path id="Path_15" data-name="Path 15" d="M472.332,374.3v31.384h-3.246L467.46,407.3v3.251l1.625,1.621h9.739V374.3Z" transform="translate(-263.219 -210.761)" fill="#4c230d"/>
    <rect id="Rectangle_2" data-name="Rectangle 2" width="6.493" height="37.876" transform="translate(222.098 163.538)" fill="#4c230d"/>
    <rect id="Rectangle_3" data-name="Rectangle 3" width="8.157" height="1.547" transform="translate(72.747 194.921)" fill="#bca79d"/>
  </g>
</svg>
