<svg width="37" height="37" viewBox="0 0 37 37" fill="none" xmlns="http://www.w3.org/2000/svg">
<g clip-path="url(#clip0_2443_340)">
<path d="M31.1726 12.6587L31.1224 6.01355C31.118 5.43109 30.6422 4.96246 30.0598 4.96686L23.4147 5.01707L18.746 0.437674C18.3313 0.0310142 17.666 0.036041 17.2576 0.44892L12.6587 5.09834L6.01358 5.14855C5.43113 5.15295 4.96249 5.62872 4.96689 6.21118L5.0171 12.8563L0.437708 17.525C0.0310475 17.9396 0.0360748 18.6049 0.448954 19.0134L5.09837 23.6122L5.14858 30.2574C5.15298 30.8398 5.62876 31.3085 6.21121 31.3041L12.8563 31.2538L17.5249 35.8332C17.7323 36.0366 18.0023 36.137 18.2715 36.1349C18.5407 36.1329 18.8092 36.0284 19.0133 35.822L23.6123 31.1726L30.2574 31.1224C30.8398 31.118 31.3085 30.6422 31.3041 30.0597L31.2539 23.4146L35.8333 18.746C36.2399 18.3314 36.2349 17.666 35.822 17.2576L31.1726 12.6587ZM29.443 22.2484C29.2477 22.4476 29.1392 22.716 29.1413 22.9949L29.1868 29.021L23.1608 29.0665C22.8818 29.0687 22.6151 29.1812 22.4189 29.3795L18.2523 33.5919L14.0225 29.4429C13.8233 29.2476 13.555 29.1391 13.276 29.1412L7.24993 29.1868L7.2044 23.1607C7.20229 22.8818 7.08974 22.615 6.89145 22.4189L2.67906 18.2522L6.828 14.0225C7.02331 13.8233 7.13182 13.5549 7.12971 13.276L7.08418 7.2499L13.1102 7.20436C13.3891 7.20226 13.6559 7.08971 13.852 6.89141L18.0187 2.67903L22.2485 6.82797C22.4477 7.02327 22.7161 7.13178 22.995 7.12967L29.021 7.08414L29.0666 13.1102C29.0687 13.3891 29.1812 13.6559 29.3795 13.852L33.5919 18.0187L29.443 22.2484Z" fill="#4C230D"/>
</g>
<defs>
<clipPath id="clip0_2443_340">
<rect width="36" height="36" fill="white" transform="translate(0 0.271973) rotate(-0.432916)"/>
</clipPath>
</defs>
</svg>
